 <svg xmlns="http://www.w3.org/2000/svg" width="164" height="62" fill="none">
            <path fill="#0081FB"
              d="M5.363 50.065c0 1.896.416 3.352.96 4.233.714 1.153 1.777 1.642 2.862 1.642 1.398 0 2.678-.347 5.144-3.758 1.975-2.733 4.303-6.57 5.869-8.976l2.652-4.075c1.843-2.83 3.975-5.976 6.42-8.108 1.996-1.741 4.15-2.708 6.317-2.708 3.638 0 7.104 2.108 9.756 6.063 2.903 4.33 4.312 9.785 4.312 15.414 0 3.347-.66 5.806-1.782 7.748-1.085 1.879-3.198 3.756-6.754 3.756V55.94c3.044 0 3.804-2.798 3.804-6 0-4.561-1.063-9.624-3.407-13.242-1.662-2.566-3.817-4.133-6.188-4.133-2.565 0-4.628 1.934-6.947 5.382-1.233 1.832-2.499 4.065-3.92 6.584l-1.564 2.771c-3.143 5.573-3.939 6.842-5.51 8.936-2.755 3.668-5.106 5.058-8.202 5.058-3.673 0-5.996-1.59-7.434-3.987C.577 55.356 0 52.793 0 49.874l5.363.191Z" />
            <path fill="url(#safety_a)"
              d="M4.229 34.756c2.458-3.79 6.007-6.441 10.077-6.441 2.357 0 4.7.698 7.147 2.695 2.676 2.185 5.529 5.782 9.088 11.71l1.276 2.127c3.08 5.132 4.833 7.772 5.859 9.017 1.319 1.599 2.243 2.076 3.443 2.076 3.044 0 3.804-2.798 3.804-6l4.731-.148c0 3.347-.66 5.806-1.782 7.748-1.084 1.879-3.198 3.756-6.753 3.756-2.21 0-4.168-.48-6.334-2.523-1.664-1.568-3.61-4.353-5.107-6.857l-4.454-7.439c-2.234-3.733-4.284-6.516-5.47-7.777-1.276-1.355-2.917-2.992-5.535-2.992-2.118 0-3.917 1.486-5.423 3.76l-4.567-2.712Z" />
            <path fill="url(#safety_b)"
              d="M14.22 33.263c-2.119 0-3.918 1.486-5.424 3.76-2.129 3.214-3.433 8-3.433 12.597 0 1.896.416 3.352.96 4.233l-4.572 3.011C.577 54.911 0 52.35 0 49.43c0-5.31 1.457-10.844 4.229-15.118 2.459-3.79 6.007-6.44 10.077-6.44l-.086 5.392Z" />
            <path fill="#192830"
              d="M60.08 29.358h6.204l10.55 19.084 10.55-19.084h6.07v31.358h-5.062V36.683L79.14 53.325h-4.749l-9.25-16.642v24.033h-5.06V29.358Zm49.232 11.692c-3.63 0-5.816 2.732-6.339 6.114h12.318c-.253-3.484-2.263-6.114-5.979-6.114ZM97.955 49.09c0-7.117 4.6-12.298 11.445-12.298 6.732 0 10.752 5.115 10.752 12.678v1.39h-17.179c.609 3.68 3.051 6.16 6.988 6.16 3.141 0 5.104-.959 6.966-2.711l2.688 3.292c-2.533 2.33-5.755 3.673-9.834 3.673-7.409 0-11.826-5.403-11.826-12.184Zm28.334-7.592h-4.659v-4.145h4.659v-6.853h4.883v6.854h7.078v4.144h-7.078v10.504c0 3.586 1.147 4.86 3.965 4.86 1.286 0 2.024-.11 3.113-.291v4.099c-1.357.383-2.652.56-4.054.56-5.272 0-7.907-2.88-7.907-8.647V41.5Zm32.524 4.03c-.981-2.476-3.169-4.3-6.384-4.3-4.179 0-6.854 2.965-6.854 7.795 0 4.709 2.463 7.817 6.653 7.817 3.295 0 5.647-1.917 6.585-4.301v-7.011Zm4.883 15.187h-4.794v-3.27c-1.34 1.925-3.778 3.83-7.727 3.83-6.351 0-10.595-5.317-10.595-12.252 0-7 4.346-12.23 10.865-12.23 3.222 0 5.75 1.288 7.457 3.562v-3.002h4.794v23.362Z" />
            <path fill="#0081FB" 
              d="M27.789 14.275c-1.452 0-2.76-.308-3.924-.923a7.017 7.017 0 0 1-2.727-2.55c-.655-1.086-.982-2.309-.982-3.67 0-1.36.328-2.582.982-3.668a7.017 7.017 0 0 1 2.727-2.55c1.164-.616 2.472-.923 3.924-.923s2.753.307 3.904.922c1.164.615 2.073 1.465 2.727 2.55.668 1.087 1.001 2.31 1.001 3.67 0 1.36-.333 2.583-1 3.669-.654 1.085-1.564 1.936-2.728 2.55-1.15.615-2.452.923-3.904.923Zm0-3.218c.693 0 1.32-.164 1.883-.49a3.545 3.545 0 0 0 1.334-1.374c.328-.602.491-1.288.491-2.06s-.163-1.452-.49-2.04a3.511 3.511 0 0 0-1.335-1.394 3.678 3.678 0 0 0-1.883-.49c-.694 0-1.321.163-1.884.49a3.512 3.512 0 0 0-1.334 1.393c-.327.589-.49 1.27-.49 2.04 0 .773.163 1.46.49 2.061a3.546 3.546 0 0 0 1.334 1.373c.563.327 1.19.49 1.884.49Zm24.954-.137v5.847h-3.551V14H39.99v2.767h-3.57V10.92h1.647V6.348c0-1.334.268-2.479.805-3.434A5.422 5.422 0 0 1 41.167.737c.981-.497 2.12-.746 3.414-.746 1.295 0 2.433.249 3.414.746a5.278 5.278 0 0 1 2.296 2.177c.55.955.824 2.1.824 3.434v4.572h1.628Zm-5.513 0V6.015c0-.93-.235-1.629-.706-2.1-.471-.47-1.119-.706-1.943-.706-.81 0-1.452.235-1.923.706-.47.471-.706 1.17-.706 2.1v4.905h5.278Zm14.147 3.355c-1.452 0-2.76-.308-3.924-.923a7.017 7.017 0 0 1-2.727-2.55c-.654-1.086-.981-2.309-.981-3.67 0-1.36.327-2.582.98-3.668a7.017 7.017 0 0 1 2.728-2.55c1.164-.616 2.472-.923 3.924-.923s2.754.307 3.905.922c1.164.615 2.073 1.465 2.727 2.55.667 1.087 1 2.31 1 3.67 0 1.36-.333 2.583-1 3.669-.654 1.085-1.563 1.936-2.727 2.55-1.151.615-2.453.923-3.905.923Zm0-3.218c.693 0 1.321-.164 1.884-.49a3.545 3.545 0 0 0 1.334-1.374c.327-.602.49-1.288.49-2.06s-.163-1.452-.49-2.04a3.511 3.511 0 0 0-1.334-1.394 3.678 3.678 0 0 0-1.884-.49c-.693 0-1.32.163-1.883.49a3.512 3.512 0 0 0-1.335 1.393c-.327.589-.49 1.27-.49 2.04 0 .773.163 1.46.49 2.061a3.546 3.546 0 0 0 1.335 1.373c.562.327 1.19.49 1.883.49ZM71.087.266h11.478v3.002h-7.652v2.217h3.55c1.662 0 2.937.353 3.827 1.06.89.706 1.334 1.72 1.334 3.04 0 1.387-.497 2.473-1.491 3.257-.994.772-2.387 1.158-4.18 1.158h-6.866V.266Zm6.612 10.948c.654 0 1.15-.13 1.49-.393.34-.261.511-.634.511-1.118 0-.968-.667-1.452-2.001-1.452h-2.786v2.963h2.786ZM91.536.128c1.988 0 3.538.478 4.65 1.433 1.112.941 1.668 2.27 1.668 3.983 0 1.648-.504 2.936-1.51 3.865-.995.915-2.401 1.373-4.22 1.373-.954 0-1.955-.183-3.001-.55V14h-3.826V5.995c0-1.897.53-3.349 1.59-4.356C87.945.632 89.495.13 91.536.13Zm-.059 7.829c.798 0 1.406-.196 1.825-.589.432-.405.647-.987.647-1.746 0-.732-.209-1.308-.627-1.726-.406-.42-.975-.628-1.707-.628-.785 0-1.4.235-1.845.706-.431.47-.647 1.131-.647 1.982v1.373c.693.419 1.478.628 2.354.628Zm20.006 5.003c-.706.406-1.563.726-2.57.961a13.745 13.745 0 0 1-3.139.354c-1.465 0-2.714-.177-3.748-.53-1.02-.353-1.792-.844-2.315-1.472a3.353 3.353 0 0 1-.765-2.178c0-.719.196-1.353.588-1.903.393-.549.936-.974 1.629-1.275a2.983 2.983 0 0 1-1.236-1.138 3.311 3.311 0 0 1-.412-1.628c0-.76.235-1.452.706-2.08.484-.628 1.217-1.132 2.198-1.511.981-.38 2.191-.569 3.629-.569.903 0 1.792.085 2.669.255.876.17 1.648.4 2.315.687l-1.059 2.904a9.252 9.252 0 0 0-3.768-.805c-.928 0-1.622.124-2.079.373-.458.235-.687.569-.687 1 0 .785.569 1.178 1.707 1.178h3.885v2.963h-4.14c-.667 0-1.171.11-1.511.333-.34.21-.51.523-.51.942 0 .445.248.791.746 1.04.497.248 1.268.372 2.315.372.745 0 1.51-.098 2.295-.294.798-.21 1.491-.49 2.08-.844l1.177 2.865ZM126.192.266V14h-3.885V8.644h-5.297V14h-3.885V.266h3.885v5.16h5.297V.266h3.885Zm9.7 14.009c-1.451 0-2.76-.308-3.924-.923a7.016 7.016 0 0 1-2.727-2.55c-.654-1.086-.981-2.309-.981-3.67 0-1.36.327-2.582.981-3.668a7.016 7.016 0 0 1 2.727-2.55c1.164-.616 2.473-.923 3.924-.923 1.452 0 2.754.307 3.905.922 1.164.615 2.073 1.465 2.727 2.55.667 1.087 1.001 2.31 1.001 3.67 0 1.36-.334 2.583-1.001 3.669-.654 1.085-1.563 1.936-2.727 2.55-1.151.615-2.453.923-3.905.923Zm0-3.218c.694 0 1.322-.164 1.884-.49a3.548 3.548 0 0 0 1.334-1.374c.327-.602.491-1.288.491-2.06s-.164-1.452-.491-2.04a3.514 3.514 0 0 0-1.334-1.394 3.677 3.677 0 0 0-1.884-.49c-.693 0-1.321.163-1.883.49a3.507 3.507 0 0 0-1.334 1.393c-.327.589-.491 1.27-.491 2.04 0 .773.164 1.46.491 2.061a3.541 3.541 0 0 0 1.334 1.373c.562.327 1.19.49 1.883.49Z" />
        
            <defs>
              <linearGradient id="safety_a" x1="10.533" x2="44.723" y1="48.518" y2="50.245"
                gradientUnits="userSpaceOnUse">
                <stop stop-color="#0064E1" />
                <stop offset=".4" stop-color="#0064E1" />
                <stop offset=".83" stop-color="#0073EE" />
                <stop offset="1" stop-color="#0082FB" />
              </linearGradient>
              <linearGradient id="safety_b" x1="7.77" x2="7.77" y1="51.872" y2="39.267" gradientUnits="userSpaceOnUse">
                <stop stop-color="#0082FB" />
                <stop offset="1" stop-color="#0064E0" />
              </linearGradient>
            </defs>
          </svg>
