<svg xmlns="http://www.w3.org/2000/svg" width="40" height="40"  viewBox="0 0 40 40"  fill="none"><path fill="#18232F" d="M20.125 4.45c5.307 0 5.935.02 8.031.114 1.938.087 2.99.405 3.69.672.928.353 1.59.776 2.286 1.458a6.031 6.031 0 0 1 1.487 2.242c.272.688.596 1.72.684 3.621.096 2.057.116 2.673.116 7.88s-.02 5.823-.116 7.88c-.088 1.9-.412 2.933-.684 3.62-.36.91-.792 1.56-1.487 2.243-.695.682-1.358 1.105-2.285 1.458-.7.267-1.753.585-3.69.672-2.096.094-2.725.113-8.032.113s-5.936-.02-8.031-.113c-1.938-.087-2.99-.405-3.69-.672-.928-.353-1.59-.776-2.286-1.458a6.032 6.032 0 0 1-1.487-2.242c-.272-.688-.596-1.72-.684-3.621-.096-2.056-.116-2.673-.116-7.88s.02-5.823.116-7.88c.088-1.9.412-2.933.684-3.62.36-.91.792-1.56 1.487-2.243.695-.682 1.358-1.105 2.285-1.458.7-.267 1.753-.585 3.69-.672 2.097-.094 2.725-.113 8.032-.113Zm0-3.513c-5.398 0-6.075.022-8.194.117-2.116.095-3.56.425-4.825.907-1.307.498-2.415 1.165-3.52 2.249a9.542 9.542 0 0 0-2.293 3.454C.802 8.904.466 10.322.37 12.397c-.097 2.08-.12 2.744-.12 8.04 0 5.296.023 5.96.12 8.04.096 2.075.432 3.493.923 4.733a9.543 9.543 0 0 0 2.293 3.454c1.105 1.084 2.213 1.751 3.52 2.25 1.264.481 2.709.811 4.825.906 2.12.095 2.796.117 8.194.117 5.398 0 6.075-.022 8.194-.117 2.116-.095 3.56-.425 4.825-.907 1.307-.498 2.415-1.165 3.52-2.249a9.542 9.542 0 0 0 2.292-3.454c.492-1.24.828-2.658.924-4.733.097-2.08.12-2.744.12-8.04 0-5.296-.023-5.96-.12-8.04-.096-2.075-.432-3.493-.924-4.733a9.542 9.542 0 0 0-2.292-3.454c-1.105-1.084-2.213-1.75-3.52-2.25-1.264-.481-2.71-.81-4.825-.906C26.2.96 25.523.937 20.125.937Zm0 9.487c-5.637 0-10.206 4.483-10.206 10.013s4.57 10.014 10.206 10.014c5.637 0 10.206-4.484 10.206-10.014 0-5.53-4.57-10.014-10.206-10.014Zm0 16.513c-3.659 0-6.625-2.91-6.625-6.5s2.966-6.5 6.625-6.5 6.625 2.91 6.625 6.5-2.966 6.5-6.625 6.5Zm12.994-16.91c0 1.293-1.068 2.34-2.385 2.34-1.317 0-2.385-1.047-2.385-2.34 0-1.291 1.068-2.34 2.385-2.34 1.317 0 2.385 1.049 2.385 2.34Z"/></svg>