<svg width="63" height="63" viewBox="0 0 63 63" fill="none" xmlns="http://www.w3.org/2000/svg">
  <g clip-path="url(#clip0_101_318)">
    <path d="M52.329 44.2901L50.694 55.8651C50.3306 58.4345 48.1246 60.329 45.5553 60.329H29.5682C28.1927 60.329 26.2203 59.784 25.26 58.7978L13.4514 46.3663L15.6055 44.1863C16.2284 43.5634 17.1108 43.2779 17.9932 43.4596L26.4279 45.3801V17.5066C26.4279 15.3525 28.1668 13.6136 30.3209 13.6136C32.475 13.6136 34.2138 15.3525 34.2138 17.5066V33.0784H36.5756C37.3801 33.0784 38.1846 33.2601 38.8854 33.6234L49.5001 38.9178C51.4985 39.93 52.6405 42.0841 52.329 44.2901ZM31.6185 7.12537C43.9203 7.12537 51.5245 13.6655 53.4969 18.8042H57.5715C55.677 11.3298 45.8667 3.23242 31.6185 3.23242C23.2617 3.23242 15.5796 6.16511 9.55848 11.0702V5.82772H5.66553V18.8042H18.642V14.9113H11.0897C16.5917 10.084 23.7548 7.12537 31.6185 7.12537Z" fill="url(#paint0_linear_101_318)"/>
  </g>
  <defs>
    <linearGradient id="paint0_linear_101_318" x1="24.5404" y1="-2.77775" x2="66.9815" y2="51.0493" gradientUnits="userSpaceOnUse">
      <stop stop-color="#B196DF"/>
      <stop offset="1" stop-color="#7B59DD"/>
    </linearGradient>
    <clipPath id="clip0_101_318">
      <rect width="62.2872" height="62.2872" fill="white" transform="translate(0.475342 0.637207)"/>
    </clipPath>
  </defs>
</svg>
