<svg width="51" height="14" viewBox="0 0 51 14" fill="none" xmlns="http://www.w3.org/2000/svg"><path d="M11.5547 6.14736H15.0239C15.771 7.07369 16.1445 8.05082 16.1445 9.07875C16.1445 10.274 15.7052 11.278 14.8267 12.0908C13.9542 12.9036 12.8784 13.31 11.5995 13.31C9.93809 13.31 8.52767 12.6795 7.36826 11.4185C6.20885 10.1575 5.62915 8.62156 5.62915 6.81073C5.62915 4.99393 6.21782 3.48192 7.39516 2.2747C8.57847 1.06748 10.0546 0.463867 11.8236 0.463867C12.4272 0.463867 13.0966 0.586382 13.8317 0.831412V4.471C13.2579 4.20206 12.735 4.0676 12.2629 4.0676C11.4083 4.0676 10.709 4.33354 10.1652 4.86544C9.62732 5.39733 9.35838 6.0876 9.35838 6.93624C9.35838 7.8028 9.60939 8.49008 10.1114 8.99807C10.6134 9.50606 11.2917 9.76005 12.1463 9.76005C12.6902 9.76005 12.9621 9.60168 12.9621 9.28493C12.9621 9.04588 12.7828 8.92635 12.4242 8.92635H11.5547V6.14736Z" fill="black"/><path d="M22.07 6.86452V10.0917H21.0212V13.0052H17.3816V5.22402C17.3816 3.71798 17.791 2.54961 18.6097 1.7189C19.4345 0.88221 20.5909 0.463867 22.079 0.463867C23.5133 0.463867 24.5741 0.843364 25.2614 1.60236C25.9487 2.35538 26.2923 3.52076 26.2923 5.09851V13.0052H22.6527V5.34055C22.6527 4.86245 22.596 4.53076 22.4824 4.3455C22.3689 4.16023 22.1657 4.0676 21.8728 4.0676C21.3051 4.0676 21.0212 4.49192 21.0212 5.34055V6.86452H22.07Z" fill="black"/><path d="M28.2466 13.0052V4.18413C28.2466 3.09047 28.5783 2.197 29.2416 1.50375C29.905 0.810495 30.7656 0.463867 31.8234 0.463867C33.0784 0.463867 34.0436 1.04058 34.7189 2.19402C35.1313 1.57248 35.5736 1.13023 36.0457 0.86727C36.5178 0.598335 37.1005 0.463867 37.7938 0.463867C38.8934 0.463867 39.7361 0.810495 40.3218 1.50375C40.9074 2.197 41.2003 3.19505 41.2003 4.49789V13.0052H37.5607V5.04473C37.5607 4.65029 37.5278 4.39032 37.4621 4.26481C37.4023 4.13334 37.2768 4.0676 37.0856 4.0676C36.727 4.0676 36.5477 4.37239 36.5477 4.98197V13.0052H32.9081V5.04473C32.9081 4.65626 32.8752 4.39629 32.8095 4.26481C32.7438 4.13334 32.6153 4.0676 32.424 4.0676C32.0655 4.0676 31.8862 4.39331 31.8862 5.04473V13.0052H28.2466Z" fill="black"/><path d="M49.9407 5.52881V8.25402H47.5651C47.2423 8.25402 47.0123 8.30183 46.8748 8.39745C46.7433 8.49307 46.6776 8.65443 46.6776 8.88153C46.6776 9.13851 46.7463 9.30884 46.8838 9.39251C47.0212 9.4702 47.3021 9.50905 47.7264 9.50905H50.1737V13.0052H47.3141C45.9694 13.0052 44.9415 12.6855 44.2303 12.046C43.5191 11.4006 43.1635 10.4712 43.1635 9.25804V4.46203C43.1635 3.29067 43.4982 2.38227 44.1675 1.73683C44.8428 1.09138 45.7901 0.76866 47.0093 0.76866H50.1737V4.28274H47.8519C47.2244 4.28274 46.9107 4.48594 46.9107 4.89233C46.9107 5.13138 46.9854 5.29872 47.1348 5.39434C47.2842 5.48399 47.5501 5.52881 47.9326 5.52881H49.9407Z" fill="black"/><path d="M4.1499 4.06757V13.0052H0.79718V4.06757H4.1499ZM2.48251 0.0783691C2.93671 0.0783691 3.32816 0.23973 3.65686 0.562452C3.99153 0.879198 4.15887 1.25571 4.15887 1.69198C4.15887 2.15813 4.00049 2.54062 3.68375 2.83943C3.37298 3.13825 2.97257 3.28766 2.48251 3.28766C1.99245 3.28766 1.58904 3.13825 1.2723 2.83943C0.961529 2.54062 0.806145 2.15813 0.806145 1.69198C0.806145 1.25571 0.970494 0.879198 1.29919 0.562452C1.63387 0.23973 2.0283 0.0783691 2.48251 0.0783691Z" fill="url(#paint0_linear_101_21)"/><defs><linearGradient id="paint0_linear_101_21" x1="2.01961" y1="-1.28235" x2="8.35565" y2="1.0164" gradientUnits="userSpaceOnUse"><stop stop-color="#414141"/><stop offset="1" stop-color="#414141"/></linearGradient></defs></svg>