 <svg xmlns="http://www.w3.org/2000/svg" width="164" height="62" fill="none">
            <path fill="#0081FB"
              d="M5.363 50.065c0 1.896.416 3.352.96 4.233.714 1.153 1.777 1.642 2.862 1.642 1.398 0 2.678-.347 5.144-3.758 1.975-2.733 4.303-6.57 5.869-8.976l2.652-4.075c1.843-2.83 3.975-5.976 6.42-8.108 1.996-1.741 4.15-2.708 6.317-2.708 3.638 0 7.104 2.108 9.756 6.063 2.903 4.33 4.312 9.785 4.312 15.414 0 3.347-.66 5.806-1.782 7.748-1.085 1.879-3.198 3.756-6.754 3.756V55.94c3.044 0 3.804-2.798 3.804-6 0-4.561-1.063-9.624-3.407-13.242-1.662-2.566-3.817-4.133-6.188-4.133-2.565 0-4.628 1.934-6.947 5.382-1.233 1.832-2.499 4.065-3.92 6.584l-1.564 2.771c-3.143 5.573-3.939 6.842-5.51 8.936-2.755 3.668-5.106 5.058-8.202 5.058-3.673 0-5.996-1.59-7.434-3.987C.577 55.356 0 52.793 0 49.874l5.363.191Z" />
            <path fill="url(#safety_a)"
              d="M4.229 34.756c2.458-3.79 6.007-6.441 10.077-6.441 2.357 0 4.7.698 7.147 2.695 2.676 2.185 5.529 5.782 9.088 11.71l1.276 2.127c3.08 5.132 4.833 7.772 5.859 9.017 1.319 1.599 2.243 2.076 3.443 2.076 3.044 0 3.804-2.798 3.804-6l4.731-.148c0 3.347-.66 5.806-1.782 7.748-1.084 1.879-3.198 3.756-6.753 3.756-2.21 0-4.168-.48-6.334-2.523-1.664-1.568-3.61-4.353-5.107-6.857l-4.454-7.439c-2.234-3.733-4.284-6.516-5.47-7.777-1.276-1.355-2.917-2.992-5.535-2.992-2.118 0-3.917 1.486-5.423 3.76l-4.567-2.712Z" />
            <path fill="url(#safety_b)"
              d="M14.22 33.263c-2.119 0-3.918 1.486-5.424 3.76-2.129 3.214-3.433 8-3.433 12.597 0 1.896.416 3.352.96 4.233l-4.572 3.011C.577 54.911 0 52.35 0 49.43c0-5.31 1.457-10.844 4.229-15.118 2.459-3.79 6.007-6.44 10.077-6.44l-.086 5.392Z" />
            <path fill="#192830"
              d="M60.08 29.358h6.204l10.55 19.084 10.55-19.084h6.07v31.358h-5.062V36.683L79.14 53.325h-4.749l-9.25-16.642v24.033h-5.06V29.358Zm49.232 11.692c-3.63 0-5.816 2.732-6.339 6.114h12.318c-.253-3.484-2.263-6.114-5.979-6.114ZM97.955 49.09c0-7.117 4.6-12.298 11.445-12.298 6.732 0 10.752 5.115 10.752 12.678v1.39h-17.179c.609 3.68 3.051 6.16 6.988 6.16 3.141 0 5.104-.959 6.966-2.711l2.688 3.292c-2.533 2.33-5.755 3.673-9.834 3.673-7.409 0-11.826-5.403-11.826-12.184Zm28.334-7.592h-4.659v-4.145h4.659v-6.853h4.883v6.854h7.078v4.144h-7.078v10.504c0 3.586 1.147 4.86 3.965 4.86 1.286 0 2.024-.11 3.113-.291v4.099c-1.357.383-2.652.56-4.054.56-5.272 0-7.907-2.88-7.907-8.647V41.5Zm32.524 4.03c-.981-2.476-3.169-4.3-6.384-4.3-4.179 0-6.854 2.965-6.854 7.795 0 4.709 2.463 7.817 6.653 7.817 3.295 0 5.647-1.917 6.585-4.301v-7.011Zm4.883 15.187h-4.794v-3.27c-1.34 1.925-3.778 3.83-7.727 3.83-6.351 0-10.595-5.317-10.595-12.252 0-7 4.346-12.23 10.865-12.23 3.222 0 5.75 1.288 7.457 3.562v-3.002h4.794v23.362Z" />
              <path fill="#0081FB"
              d="M12.266-.009c1.295 0 2.433.262 3.414.785a5.31 5.31 0 0 1 2.295 2.256c.55.981.824 2.165.824 3.551V14h-3.884v-3.041H9.558V14H5.732V6.583c0-1.386.268-2.57.805-3.55A5.453 5.453 0 0 1 8.832.775c.994-.523 2.139-.785 3.434-.785Zm2.649 7.966V6.25c0-1.007-.242-1.766-.726-2.276-.484-.51-1.132-.765-1.943-.765-.824 0-1.478.255-1.962.765s-.726 1.269-.726 2.276v1.707h5.357ZM27.706.266c1.243 0 2.322.209 3.237.628.916.405 1.622.994 2.12 1.765.496.76.745 1.655.745 2.688 0 1.034-.249 1.93-.746 2.688-.497.76-1.203 1.348-2.119 1.766-.915.406-1.994.608-3.237.608h-2.394V14h-3.885V.266h6.279Zm-.235 7.083c.797 0 1.4-.17 1.805-.51.405-.354.608-.85.608-1.492 0-.64-.203-1.138-.608-1.49-.406-.354-1.008-.53-1.805-.53h-2.159v4.022h2.159ZM41.98.266c1.242 0 2.321.209 3.237.628.916.405 1.622.994 2.119 1.765.497.76.745 1.655.745 2.688 0 1.034-.248 1.93-.745 2.688-.497.76-1.203 1.348-2.12 1.766-.915.406-1.994.608-3.236.608h-2.394V14h-3.885V.266h6.279Zm-.236 7.083c.798 0 1.4-.17 1.805-.51.406-.354.608-.85.608-1.492 0-.64-.202-1.138-.608-1.49-.405-.354-1.007-.53-1.805-.53h-2.158v4.022h2.158Zm14.236 3.002h-2.12V14h-3.884V.266h6.278c1.243 0 2.322.209 3.237.628.916.405 1.623.994 2.12 1.765.497.76.745 1.655.745 2.688 0 .995-.235 1.864-.706 2.61-.458.732-1.119 1.308-1.982 1.727L62.632 14h-4.16l-2.492-3.65Zm2.452-5.004c0-.64-.203-1.138-.608-1.49-.406-.354-1.007-.53-1.805-.53H53.86v4.022h2.159c.798 0 1.4-.17 1.805-.51.405-.354.608-.85.608-1.492Zm12.993 8.928c-1.452 0-2.76-.308-3.924-.923a7.017 7.017 0 0 1-2.727-2.55c-.654-1.086-.981-2.309-.981-3.67 0-1.36.327-2.582.981-3.668a7.017 7.017 0 0 1 2.727-2.55c1.164-.616 2.472-.923 3.924-.923s2.754.307 3.905.922c1.164.615 2.073 1.465 2.727 2.55.667 1.087 1 2.31 1 3.67 0 1.36-.333 2.583-1 3.669-.654 1.085-1.563 1.936-2.727 2.55-1.151.615-2.453.923-3.905.923Zm0-3.218c.694 0 1.321-.164 1.884-.49a3.546 3.546 0 0 0 1.334-1.374c.327-.602.49-1.288.49-2.06s-.163-1.452-.49-2.04a3.512 3.512 0 0 0-1.334-1.394 3.679 3.679 0 0 0-1.884-.49c-.693 0-1.32.163-1.883.49a3.512 3.512 0 0 0-1.334 1.393c-.327.589-.49 1.27-.49 2.04 0 .773.163 1.46.49 2.061a3.546 3.546 0 0 0 1.334 1.373c.562.327 1.19.49 1.883.49ZM94.545.266 88.659 14h-3.826L78.966.266h4.199l3.728 8.947L90.699.266h3.846Zm12.424 12.694c-.707.406-1.563.726-2.571.961a13.739 13.739 0 0 1-3.139.354c-1.465 0-2.714-.177-3.747-.53-1.02-.353-1.792-.844-2.316-1.472a3.354 3.354 0 0 1-.765-2.178c0-.719.196-1.353.589-1.903.392-.549.935-.974 1.628-1.275a2.98 2.98 0 0 1-1.236-1.138A3.311 3.311 0 0 1 95 4.151c0-.76.236-1.452.707-2.08.484-.628 1.216-1.132 2.197-1.511.981-.38 2.191-.569 3.63-.569.902 0 1.792.085 2.668.255.877.17 1.648.4 2.315.687l-1.059 2.904a9.247 9.247 0 0 0-3.767-.805c-.929 0-1.622.124-2.08.373-.458.235-.687.569-.687 1 0 .785.57 1.178 1.707 1.178h3.885v2.963h-4.14c-.667 0-1.17.11-1.51.333-.34.21-.51.523-.51.942 0 .445.248.791.745 1.04.497.248 1.269.372 2.315.372a9.45 9.45 0 0 0 2.296-.294c.798-.21 1.491-.49 2.079-.844l1.178 2.865ZM108.512.266h6.494c1.505 0 2.839.281 4.003.843 1.164.563 2.067 1.36 2.708 2.394.64 1.033.961 2.243.961 3.63 0 1.386-.321 2.596-.961 3.63-.641 1.033-1.544 1.83-2.708 2.393-1.164.563-2.498.844-4.003.844h-6.494V.266Zm6.337 10.634c1.178 0 2.119-.334 2.826-1 .719-.668 1.079-1.59 1.079-2.767 0-1.177-.36-2.1-1.079-2.767-.707-.667-1.648-1-2.826-1h-2.452V10.9h2.452Zm26.138-4.061c.785.274 1.4.706 1.845 1.295.444.575.667 1.275.667 2.099 0 1.203-.484 2.132-1.452 2.786-.968.654-2.368.981-4.199.981h-7.416V.266h7.024c1.752 0 3.087.327 4.002.98.916.642 1.374 1.512 1.374 2.61 0 .654-.164 1.243-.491 1.766-.314.51-.765.916-1.354 1.217Zm-6.71-3.768v2.65h2.669c1.308 0 1.962-.446 1.962-1.335 0-.876-.654-1.315-1.962-1.315h-2.669Zm3.257 8.123c1.361 0 2.041-.464 2.041-1.393 0-.928-.68-1.393-2.041-1.393h-3.257v2.786h3.257ZM158.264.266v9.32c0 1.386-.274 2.576-.824 3.57a5.288 5.288 0 0 1-2.354 2.217c-1.007.51-2.204.766-3.591.766-1.216 0-2.322-.157-3.316-.471-.981-.301-1.824-.733-2.531-1.295l1.452-2.806a7.24 7.24 0 0 0 2.021 1.04 7.09 7.09 0 0 0 2.217.353c1.047 0 1.812-.255 2.296-.765.497-.51.745-1.308.745-2.394v-.628c-.876 1.06-2.112 1.59-3.708 1.59-1.726 0-3.054-.49-3.983-1.472-.928-.994-1.393-2.413-1.393-4.258V.266h3.885v4.512c0 .93.209 1.629.628 2.1.431.458 1.053.687 1.864.687.824 0 1.478-.242 1.962-.726.497-.484.745-1.237.745-2.257V.266h3.885Z" />
            <defs>
              <linearGradient id="safety_a" x1="10.533" x2="44.723" y1="48.518" y2="50.245"
                gradientUnits="userSpaceOnUse">
                <stop stop-color="#0064E1" />
                <stop offset=".4" stop-color="#0064E1" />
                <stop offset=".83" stop-color="#0073EE" />
                <stop offset="1" stop-color="#0082FB" />
              </linearGradient>
              <linearGradient id="safety_b" x1="7.77" x2="7.77" y1="51.872" y2="39.267" gradientUnits="userSpaceOnUse">
                <stop stop-color="#0082FB" />
                <stop offset="1" stop-color="#0064E0" />
              </linearGradient>
            </defs>
          </svg>