<svg width="96" height="26" viewBox="0 0 96 26" fill="none" xmlns="http://www.w3.org/2000/svg">
    <g clip-path="url(#clip0_2116_94)">
        <path
            d="M20.915 11.9258H27.6601C29.1125 13.746 29.8387 15.666 29.8387 17.6859C29.8387 20.0346 28.9847 22.0074 27.2766 23.6045C25.5802 25.2016 23.4887 26.0002 21.0021 26.0002C17.7719 26.0002 15.0297 24.7613 12.7756 22.2834C10.5214 19.8056 9.39429 16.7875 9.39429 13.2293C9.39429 9.65929 10.5388 6.68822 12.8278 4.31605C15.1285 1.94389 17.9985 0.757812 21.4379 0.757812C22.6114 0.757812 23.9128 0.998552 25.342 1.48003V8.63174C24.2265 8.10329 23.2098 7.83907 22.2919 7.83907C20.6303 7.83907 19.2708 8.36165 18.2135 9.40681C17.1677 10.452 16.6448 11.8083 16.6448 13.4759C16.6448 15.1787 17.1329 16.5292 18.1089 17.5273C19.0849 18.5255 20.4037 19.0246 22.0653 19.0246C23.1227 19.0246 23.6514 18.7134 23.6514 18.091C23.6514 17.6213 23.3028 17.3864 22.6056 17.3864H20.915V11.9258Z"
            fill="#121212" />
        <path
            d="M41.3594 13.335V19.6764H39.3202V25.4013H32.244V10.1114C32.244 7.15208 33.0399 4.85625 34.6318 3.22392C36.2353 1.57985 38.4836 0.757812 41.3769 0.757812C44.1655 0.757812 46.228 1.50352 47.5642 2.99492C48.9005 4.47459 49.5686 6.76455 49.5686 9.8648V25.4013H42.4923V10.3404C42.4923 9.40093 42.382 8.74918 42.1612 8.38513C41.9404 8.02109 41.5454 7.83907 40.976 7.83907C39.8722 7.83907 39.3202 8.67285 39.3202 10.3404V13.335H41.3594Z"
            fill="#121212" />
        <path
            d="M53.3682 25.4013V8.06806C53.3682 5.91902 54.013 4.16339 55.3028 2.80116C56.5926 1.43893 58.2658 0.757812 60.3224 0.757812C62.7625 0.757812 64.639 1.89105 65.952 4.15752C66.7538 2.93621 67.6136 2.0672 68.5316 1.55049C69.4495 1.02204 70.5824 0.757812 71.9303 0.757812C74.0683 0.757812 75.7066 1.43893 76.8453 2.80116C77.984 4.16339 78.5534 6.12453 78.5534 8.68459V25.4013H71.4771V9.75911C71.4771 8.98404 71.4132 8.47321 71.2854 8.2266C71.1692 7.96824 70.9252 7.83907 70.5534 7.83907C69.8562 7.83907 69.5076 8.43798 69.5076 9.6358V25.4013H62.4314V9.75911C62.4314 8.99579 62.3674 8.48495 62.2396 8.2266C62.1118 7.96824 61.862 7.83907 61.4902 7.83907C60.793 7.83907 60.4444 8.47908 60.4444 9.75911V25.4013H53.3682Z"
            fill="#121212" />
        <path
            d="M95.5468 10.7103V16.0653H90.9281C90.3006 16.0653 89.8533 16.1592 89.586 16.3471C89.3304 16.535 89.2026 16.8521 89.2026 17.2984C89.2026 17.8033 89.3362 18.138 89.6035 18.3024C89.8707 18.4551 90.4168 18.5314 91.2418 18.5314H96V25.4013H90.4401C87.8257 25.4013 85.8271 24.773 84.4444 23.5165C83.0617 22.2482 82.3704 20.4221 82.3704 18.0382V8.61413C82.3704 6.31243 83.021 4.52743 84.3224 3.25915C85.6354 1.99087 87.4771 1.35672 89.8475 1.35672H96V8.26183H91.4858C90.2658 8.26183 89.6558 8.6611 89.6558 9.45965C89.6558 9.92939 89.801 10.2582 90.0915 10.4461C90.382 10.6222 90.899 10.7103 91.6427 10.7103H95.5468Z"
            fill="#121212" />
        <path
            d="M6.51852 7.8387V25.4009H0V7.8387H6.51852ZM3.27669 0C4.15977 0 4.92085 0.317071 5.55992 0.951213C6.21061 1.57361 6.53595 2.31344 6.53595 3.17071C6.53595 4.08669 6.22804 4.83827 5.6122 5.42544C5.00799 6.01261 4.22949 6.30619 3.27669 6.30619C2.32389 6.30619 1.53958 6.01261 0.923748 5.42544C0.319535 4.83827 0.0174292 4.08669 0.0174292 3.17071C0.0174292 2.31344 0.336965 1.57361 0.976035 0.951213C1.62673 0.317071 2.39361 0 3.27669 0Z"
            fill="#007DF6" />
    </g>
    <defs>
        <clipPath id="clip0_2116_94">
            <rect width="96" height="26" fill="white" />
        </clipPath>
    </defs>
</svg>
    